#
# Track frame offsets:
#	150
#	11637
#	20267
#	36637
#	45740
#	52457
#	60752
#	78732
#	88990
#	98937
#	110880
#	120497
#
# Disc length: 1788 seconds
#
# Submitted via: cddb-tool 0.4.7
#
#blues,classical,country,data,folk,jazz,newage,reggae,rock,soundtrack,misc
#CATEGORY=misc
DISCID=a706fa0c
DTITLE=Winona High Scholl Choirs / Christmas Classics
DYEAR=
DGENRE=Christmas
TTITLE0=O' Come all ye faithful
TTITLE1=Bring a Torch
TTITLE2=Angels we have heard on high
TTITLE3=Lo, How a rose e'er blooming
TTITLE4=Deck the Hall
TTITLE5=The first Noel
TTITLE6=Joseph dearest, Joseph mine
TTITLE7=As lately we watched
TTITLE8=Away in a manger
TTITLE9=O Yule full of gladness
TTITLE10=Rockin
TTITLE11=Silent night, deadly night
EXTD=
EXTT0=
EXTT1=
EXTT2=
EXTT3=
EXTT4=
EXTT5=
EXTT6=
EXTT7=
EXTT8=
EXTT9=
EXTT10=
EXTT11=
PLAYORDER=
